# xmcd
#
# Track frame offsets: 
#        150
#        21910
#        36597
#        67610
#        85465
#        112032
#        136380
#        158480
#        184157
#        210252
#        233265
#        252530
#        273630
#        292425
#
# Disc length: 4245 seconds
#
# Revision: 5
# Processed by: cddbd v1.5.2PL0 Copyright (c) Steve Scherf et al.
# Submitted via: ExactAudioCopy v0.99pb4
#
DISCID=cb10930e
DTITLE=Presuntos Implicados - La noche
DYEAR=1995
DGENRE=Pop en español
TTITLE0=Las palabras de amor
TTITLE1=Mi pequeño tesoro
TTITLE2=La flor de la mañana
TTITLE3=No hay humor
TTITLE4=Icaro
TTITLE5=La noche
TTITLE6=Debatiendome
TTITLE7=Como hemos cambiado
TTITLE8=Alma de blues
TTITLE9=En la oscuridad
TTITLE10=Sentir su calor
TTITLE11=Cada historia
TTITLE12=Fallen (Sueño)
TTITLE13=Llovió
EXTD=
EXTT0=
EXTT1=
EXTT2=
EXTT3=
EXTT4=
EXTT5=
EXTT6=
EXTT7=
EXTT8=
EXTT9=
EXTT10=
EXTT11=
EXTT12=
EXTT13=
PLAYORDER=
